<mxfile host="app.diagrams.net" agent="Mozilla/5.0 (Windows NT 10.0; Win64; x64) AppleWebKit/537.36 (KHTML, like Gecko) Chrome/131.0.0.0 Safari/537.36 Edg/131.0.0.0" version="26.0.4">
  <diagram name="Page-1" id="zUVNCJs_0HY6lcxZOMUl">
    <mxGraphModel dx="2605" dy="2513" grid="1" gridSize="10" guides="1" tooltips="1" connect="1" arrows="1" fold="1" page="1" pageScale="1" pageWidth="850" pageHeight="1100" math="0" shadow="0">
      <root>
        <mxCell id="0" />
        <mxCell id="1" parent="0" />
        <mxCell id="kKIpwyrMqBAjSHRRCRlv-43" value="" style="rounded=0;whiteSpace=wrap;html=1;fillColor=none;strokeColor=#48CDFF;" vertex="1" parent="1">
          <mxGeometry x="20" y="504" width="120" height="580" as="geometry" />
        </mxCell>
        <mxCell id="kKIpwyrMqBAjSHRRCRlv-1" value="Admin" style="ellipse;whiteSpace=wrap;html=1;aspect=fixed;" vertex="1" parent="1">
          <mxGeometry x="50" y="120" width="80" height="80" as="geometry" />
        </mxCell>
        <mxCell id="kKIpwyrMqBAjSHRRCRlv-2" value="Freelancer" style="ellipse;whiteSpace=wrap;html=1;aspect=fixed;" vertex="1" parent="1">
          <mxGeometry x="150" y="120" width="80" height="80" as="geometry" />
        </mxCell>
        <mxCell id="kKIpwyrMqBAjSHRRCRlv-3" value="Nhà tuyển dụng" style="ellipse;whiteSpace=wrap;html=1;aspect=fixed;" vertex="1" parent="1">
          <mxGeometry x="260" y="120" width="80" height="80" as="geometry" />
        </mxCell>
        <mxCell id="kKIpwyrMqBAjSHRRCRlv-5" value="" style="endArrow=classic;html=1;rounded=0;exitX=0.5;exitY=1;exitDx=0;exitDy=0;edgeStyle=orthogonalEdgeStyle;curved=1;" edge="1" parent="1" source="kKIpwyrMqBAjSHRRCRlv-1">
          <mxGeometry width="50" height="50" relative="1" as="geometry">
            <mxPoint x="400" y="320" as="sourcePoint" />
            <mxPoint x="110" y="230" as="targetPoint" />
          </mxGeometry>
        </mxCell>
        <mxCell id="kKIpwyrMqBAjSHRRCRlv-7" value="" style="endArrow=classic;html=1;rounded=0;exitX=0.5;exitY=1;exitDx=0;exitDy=0;" edge="1" parent="1" source="kKIpwyrMqBAjSHRRCRlv-2">
          <mxGeometry width="50" height="50" relative="1" as="geometry">
            <mxPoint x="100" y="210" as="sourcePoint" />
            <mxPoint x="190" y="230" as="targetPoint" />
          </mxGeometry>
        </mxCell>
        <mxCell id="kKIpwyrMqBAjSHRRCRlv-8" value="" style="endArrow=classic;html=1;rounded=0;exitX=0.5;exitY=1;exitDx=0;exitDy=0;edgeStyle=orthogonalEdgeStyle;curved=1;" edge="1" parent="1" source="kKIpwyrMqBAjSHRRCRlv-3">
          <mxGeometry width="50" height="50" relative="1" as="geometry">
            <mxPoint x="200" y="210" as="sourcePoint" />
            <mxPoint x="280" y="230" as="targetPoint" />
          </mxGeometry>
        </mxCell>
        <mxCell id="kKIpwyrMqBAjSHRRCRlv-9" value="HTML/CSS/Javascript/Bootstrap" style="rounded=0;whiteSpace=wrap;html=1;" vertex="1" parent="1">
          <mxGeometry x="75" y="230" width="230" height="70" as="geometry" />
        </mxCell>
        <mxCell id="kKIpwyrMqBAjSHRRCRlv-25" value="" style="rounded=0;whiteSpace=wrap;html=1;strokeColor=#F4FF82;" vertex="1" parent="1">
          <mxGeometry x="360" y="50" width="480" height="360" as="geometry" />
        </mxCell>
        <mxCell id="kKIpwyrMqBAjSHRRCRlv-10" value="Auth View" style="rounded=1;whiteSpace=wrap;html=1;" vertex="1" parent="1">
          <mxGeometry x="520" y="330" width="120" height="60" as="geometry" />
        </mxCell>
        <mxCell id="kKIpwyrMqBAjSHRRCRlv-11" value="" style="endArrow=classic;html=1;rounded=0;exitX=0.5;exitY=0;exitDx=0;exitDy=0;entryX=0.5;entryY=1;entryDx=0;entryDy=0;edgeStyle=orthogonalEdgeStyle;elbow=vertical;curved=1;" edge="1" parent="1" source="kKIpwyrMqBAjSHRRCRlv-10" target="kKIpwyrMqBAjSHRRCRlv-9">
          <mxGeometry width="50" height="50" relative="1" as="geometry">
            <mxPoint x="480" y="340" as="sourcePoint" />
            <mxPoint x="530" y="290" as="targetPoint" />
          </mxGeometry>
        </mxCell>
        <mxCell id="kKIpwyrMqBAjSHRRCRlv-12" value="Skill View" style="rounded=1;whiteSpace=wrap;html=1;" vertex="1" parent="1">
          <mxGeometry x="750" y="80" width="70" height="60" as="geometry" />
        </mxCell>
        <mxCell id="kKIpwyrMqBAjSHRRCRlv-13" value="Post View" style="rounded=1;whiteSpace=wrap;html=1;" vertex="1" parent="1">
          <mxGeometry x="390" y="80" width="70" height="60" as="geometry" />
        </mxCell>
        <mxCell id="kKIpwyrMqBAjSHRRCRlv-14" value="Profile View" style="rounded=1;whiteSpace=wrap;html=1;" vertex="1" parent="1">
          <mxGeometry x="470" y="80" width="80" height="60" as="geometry" />
        </mxCell>
        <mxCell id="kKIpwyrMqBAjSHRRCRlv-15" value="Contact View&lt;span style=&quot;color: rgba(0, 0, 0, 0); font-family: monospace; font-size: 0px; text-align: start; text-wrap-mode: nowrap;&quot;&gt;%3CmxGraphModel%3E%3Croot%3E%3CmxCell%20id%3D%220%22%2F%3E%3CmxCell%20id%3D%221%22%20parent%3D%220%22%2F%3E%3CmxCell%20id%3D%222%22%20value%3D%22Auth%20View%22%20style%3D%22rounded%3D1%3BwhiteSpace%3Dwrap%3Bhtml%3D1%3B%22%20vertex%3D%221%22%20parent%3D%221%22%3E%3CmxGeometry%20x%3D%22320%22%20y%3D%22360%22%20width%3D%22120%22%20height%3D%2260%22%20as%3D%22geometry%22%2F%3E%3C%2FmxCell%3E%3C%2Froot%3E%3C%2FmxGraphModel%3E&lt;/span&gt;&lt;span style=&quot;color: rgba(0, 0, 0, 0); font-family: monospace; font-size: 0px; text-align: start; text-wrap-mode: nowrap;&quot;&gt;%3CmxGraphModel%3E%3Croot%3E%3CmxCell%20id%3D%220%22%2F%3E%3CmxCell%20id%3D%221%22%20parent%3D%220%22%2F%3E%3CmxCell%20id%3D%222%22%20value%3D%22Auth%20View%22%20style%3D%22rounded%3D1%3BwhiteSpace%3Dwrap%3Bhtml%3D1%3B%22%20vertex%3D%221%22%20parent%3D%221%22%3E%3CmxGeometry%20x%3D%22320%22%20y%3D%22360%22%20width%3D%22120%22%20height%3D%2260%22%20as%3D%22geometry%22%2F%3E%3C%2FmxCell%3E%3C%2Froot%3E%3C%2FmxGraphModel%3E&lt;/span&gt;" style="rounded=1;whiteSpace=wrap;html=1;" vertex="1" parent="1">
          <mxGeometry x="560" y="80" width="80" height="60" as="geometry" />
        </mxCell>
        <mxCell id="kKIpwyrMqBAjSHRRCRlv-16" value="Category View" style="rounded=1;whiteSpace=wrap;html=1;" vertex="1" parent="1">
          <mxGeometry x="650" y="80" width="90" height="60" as="geometry" />
        </mxCell>
        <mxCell id="kKIpwyrMqBAjSHRRCRlv-17" value="Auth Controller" style="rounded=1;whiteSpace=wrap;html=1;" vertex="1" parent="1">
          <mxGeometry x="390" y="454" width="120" height="60" as="geometry" />
        </mxCell>
        <mxCell id="kKIpwyrMqBAjSHRRCRlv-18" value="" style="endArrow=classic;html=1;rounded=0;exitX=0.5;exitY=0;exitDx=0;exitDy=0;entryX=0.5;entryY=0;entryDx=0;entryDy=0;edgeStyle=orthogonalEdgeStyle;elbow=vertical;curved=1;" edge="1" parent="1" source="kKIpwyrMqBAjSHRRCRlv-17" target="kKIpwyrMqBAjSHRRCRlv-10">
          <mxGeometry width="50" height="50" relative="1" as="geometry">
            <mxPoint x="200" y="310" as="sourcePoint" />
            <mxPoint x="390" y="370" as="targetPoint" />
            <Array as="points">
              <mxPoint x="450" y="460" />
              <mxPoint x="860" y="460" />
              <mxPoint x="860" y="280" />
              <mxPoint x="580" y="280" />
            </Array>
          </mxGeometry>
        </mxCell>
        <mxCell id="kKIpwyrMqBAjSHRRCRlv-20" value="" style="endArrow=classic;html=1;rounded=0;exitX=0.5;exitY=1;exitDx=0;exitDy=0;entryX=1;entryY=0.5;entryDx=0;entryDy=0;" edge="1" parent="1" source="kKIpwyrMqBAjSHRRCRlv-13" target="kKIpwyrMqBAjSHRRCRlv-9">
          <mxGeometry width="50" height="50" relative="1" as="geometry">
            <mxPoint x="480" y="240" as="sourcePoint" />
            <mxPoint x="530" y="190" as="targetPoint" />
          </mxGeometry>
        </mxCell>
        <mxCell id="kKIpwyrMqBAjSHRRCRlv-21" value="" style="endArrow=classic;html=1;rounded=0;exitX=0.5;exitY=1;exitDx=0;exitDy=0;entryX=1;entryY=0.5;entryDx=0;entryDy=0;" edge="1" parent="1" source="kKIpwyrMqBAjSHRRCRlv-14" target="kKIpwyrMqBAjSHRRCRlv-9">
          <mxGeometry width="50" height="50" relative="1" as="geometry">
            <mxPoint x="460" y="150" as="sourcePoint" />
            <mxPoint x="315" y="275" as="targetPoint" />
          </mxGeometry>
        </mxCell>
        <mxCell id="kKIpwyrMqBAjSHRRCRlv-22" value="" style="endArrow=classic;html=1;rounded=0;exitX=0.5;exitY=1;exitDx=0;exitDy=0;entryX=1;entryY=0.5;entryDx=0;entryDy=0;" edge="1" parent="1" source="kKIpwyrMqBAjSHRRCRlv-15" target="kKIpwyrMqBAjSHRRCRlv-9">
          <mxGeometry width="50" height="50" relative="1" as="geometry">
            <mxPoint x="600" y="150" as="sourcePoint" />
            <mxPoint x="315" y="275" as="targetPoint" />
          </mxGeometry>
        </mxCell>
        <mxCell id="kKIpwyrMqBAjSHRRCRlv-23" value="" style="endArrow=classic;html=1;rounded=0;exitX=0.5;exitY=1;exitDx=0;exitDy=0;entryX=1;entryY=0.5;entryDx=0;entryDy=0;" edge="1" parent="1" source="kKIpwyrMqBAjSHRRCRlv-16" target="kKIpwyrMqBAjSHRRCRlv-9">
          <mxGeometry width="50" height="50" relative="1" as="geometry">
            <mxPoint x="740" y="150" as="sourcePoint" />
            <mxPoint x="315" y="275" as="targetPoint" />
          </mxGeometry>
        </mxCell>
        <mxCell id="kKIpwyrMqBAjSHRRCRlv-24" value="" style="endArrow=classic;html=1;rounded=0;exitX=0.5;exitY=1;exitDx=0;exitDy=0;entryX=1;entryY=0.5;entryDx=0;entryDy=0;" edge="1" parent="1" source="kKIpwyrMqBAjSHRRCRlv-12" target="kKIpwyrMqBAjSHRRCRlv-9">
          <mxGeometry width="50" height="50" relative="1" as="geometry">
            <mxPoint x="880" y="150" as="sourcePoint" />
            <mxPoint x="315" y="275" as="targetPoint" />
          </mxGeometry>
        </mxCell>
        <mxCell id="kKIpwyrMqBAjSHRRCRlv-28" value="Skill Model" style="rounded=1;whiteSpace=wrap;html=1;" vertex="1" parent="1">
          <mxGeometry x="180" y="910" width="120" height="60" as="geometry" />
        </mxCell>
        <mxCell id="kKIpwyrMqBAjSHRRCRlv-29" value="Category Model" style="rounded=1;whiteSpace=wrap;html=1;" vertex="1" parent="1">
          <mxGeometry x="180" y="812" width="120" height="60" as="geometry" />
        </mxCell>
        <mxCell id="kKIpwyrMqBAjSHRRCRlv-30" value="Freelancer Model" style="rounded=1;whiteSpace=wrap;html=1;" vertex="1" parent="1">
          <mxGeometry x="180" y="714" width="120" height="60" as="geometry" />
        </mxCell>
        <mxCell id="kKIpwyrMqBAjSHRRCRlv-31" value="Account Model" style="rounded=1;whiteSpace=wrap;html=1;" vertex="1" parent="1">
          <mxGeometry x="180" y="534" width="120" height="60" as="geometry" />
        </mxCell>
        <mxCell id="kKIpwyrMqBAjSHRRCRlv-32" value="Employer Model" style="rounded=1;whiteSpace=wrap;html=1;" vertex="1" parent="1">
          <mxGeometry x="180" y="624" width="120" height="60" as="geometry" />
        </mxCell>
        <mxCell id="kKIpwyrMqBAjSHRRCRlv-33" value="Account DB" style="shape=cylinder3;whiteSpace=wrap;html=1;boundedLbl=1;backgroundOutline=1;size=15;" vertex="1" parent="1">
          <mxGeometry x="50" y="524" width="60" height="80" as="geometry" />
        </mxCell>
        <mxCell id="kKIpwyrMqBAjSHRRCRlv-34" value="Employer DB" style="shape=cylinder3;whiteSpace=wrap;html=1;boundedLbl=1;backgroundOutline=1;size=15;" vertex="1" parent="1">
          <mxGeometry x="50" y="614" width="60" height="80" as="geometry" />
        </mxCell>
        <mxCell id="kKIpwyrMqBAjSHRRCRlv-38" value="Freelancer DB" style="shape=cylinder3;whiteSpace=wrap;html=1;boundedLbl=1;backgroundOutline=1;size=15;" vertex="1" parent="1">
          <mxGeometry x="50" y="704" width="60" height="80" as="geometry" />
        </mxCell>
        <mxCell id="kKIpwyrMqBAjSHRRCRlv-39" value="Category DB" style="shape=cylinder3;whiteSpace=wrap;html=1;boundedLbl=1;backgroundOutline=1;size=15;" vertex="1" parent="1">
          <mxGeometry x="50" y="802" width="60" height="80" as="geometry" />
        </mxCell>
        <mxCell id="kKIpwyrMqBAjSHRRCRlv-40" value="Skill DB" style="shape=cylinder3;whiteSpace=wrap;html=1;boundedLbl=1;backgroundOutline=1;size=15;" vertex="1" parent="1">
          <mxGeometry x="50" y="900" width="60" height="80" as="geometry" />
        </mxCell>
        <mxCell id="kKIpwyrMqBAjSHRRCRlv-41" value="Post DB" style="shape=cylinder3;whiteSpace=wrap;html=1;boundedLbl=1;backgroundOutline=1;size=15;" vertex="1" parent="1">
          <mxGeometry x="50" y="994" width="60" height="80" as="geometry" />
        </mxCell>
        <mxCell id="kKIpwyrMqBAjSHRRCRlv-42" value="Post Model" style="rounded=1;whiteSpace=wrap;html=1;" vertex="1" parent="1">
          <mxGeometry x="180" y="1004" width="120" height="60" as="geometry" />
        </mxCell>
        <mxCell id="kKIpwyrMqBAjSHRRCRlv-44" value="" style="endArrow=classic;html=1;rounded=0;exitX=0;exitY=0.5;exitDx=0;exitDy=0;entryX=1;entryY=0.5;entryDx=0;entryDy=0;entryPerimeter=0;" edge="1" parent="1" source="kKIpwyrMqBAjSHRRCRlv-31" target="kKIpwyrMqBAjSHRRCRlv-33">
          <mxGeometry width="50" height="50" relative="1" as="geometry">
            <mxPoint x="170" y="534" as="sourcePoint" />
            <mxPoint x="120" y="584" as="targetPoint" />
          </mxGeometry>
        </mxCell>
        <mxCell id="kKIpwyrMqBAjSHRRCRlv-45" value="" style="endArrow=classic;html=1;rounded=0;exitX=0;exitY=0.5;exitDx=0;exitDy=0;entryX=1;entryY=0.5;entryDx=0;entryDy=0;entryPerimeter=0;" edge="1" parent="1" source="kKIpwyrMqBAjSHRRCRlv-32" target="kKIpwyrMqBAjSHRRCRlv-34">
          <mxGeometry width="50" height="50" relative="1" as="geometry">
            <mxPoint x="190" y="574" as="sourcePoint" />
            <mxPoint x="120" y="574" as="targetPoint" />
          </mxGeometry>
        </mxCell>
        <mxCell id="kKIpwyrMqBAjSHRRCRlv-46" value="" style="endArrow=classic;html=1;rounded=0;exitX=0;exitY=0.5;exitDx=0;exitDy=0;entryX=1;entryY=0.5;entryDx=0;entryDy=0;entryPerimeter=0;" edge="1" parent="1" source="kKIpwyrMqBAjSHRRCRlv-30" target="kKIpwyrMqBAjSHRRCRlv-38">
          <mxGeometry width="50" height="50" relative="1" as="geometry">
            <mxPoint x="190" y="664" as="sourcePoint" />
            <mxPoint x="120" y="664" as="targetPoint" />
          </mxGeometry>
        </mxCell>
        <mxCell id="kKIpwyrMqBAjSHRRCRlv-47" value="" style="endArrow=classic;html=1;rounded=0;exitX=0;exitY=0.5;exitDx=0;exitDy=0;entryX=1;entryY=0.5;entryDx=0;entryDy=0;entryPerimeter=0;" edge="1" parent="1" source="kKIpwyrMqBAjSHRRCRlv-29" target="kKIpwyrMqBAjSHRRCRlv-39">
          <mxGeometry width="50" height="50" relative="1" as="geometry">
            <mxPoint x="200" y="674" as="sourcePoint" />
            <mxPoint x="130" y="674" as="targetPoint" />
          </mxGeometry>
        </mxCell>
        <mxCell id="kKIpwyrMqBAjSHRRCRlv-48" value="" style="endArrow=classic;html=1;rounded=0;exitX=0;exitY=0.5;exitDx=0;exitDy=0;entryX=1;entryY=0.5;entryDx=0;entryDy=0;entryPerimeter=0;" edge="1" parent="1" source="kKIpwyrMqBAjSHRRCRlv-28" target="kKIpwyrMqBAjSHRRCRlv-40">
          <mxGeometry width="50" height="50" relative="1" as="geometry">
            <mxPoint x="210" y="684" as="sourcePoint" />
            <mxPoint x="140" y="684" as="targetPoint" />
          </mxGeometry>
        </mxCell>
        <mxCell id="kKIpwyrMqBAjSHRRCRlv-49" value="" style="endArrow=classic;html=1;rounded=0;exitX=0;exitY=0.5;exitDx=0;exitDy=0;entryX=1;entryY=0.5;entryDx=0;entryDy=0;entryPerimeter=0;" edge="1" parent="1" source="kKIpwyrMqBAjSHRRCRlv-42" target="kKIpwyrMqBAjSHRRCRlv-41">
          <mxGeometry width="50" height="50" relative="1" as="geometry">
            <mxPoint x="220" y="694" as="sourcePoint" />
            <mxPoint x="150" y="694" as="targetPoint" />
          </mxGeometry>
        </mxCell>
        <mxCell id="kKIpwyrMqBAjSHRRCRlv-50" value="" style="rounded=0;whiteSpace=wrap;html=1;strokeColor=#F4FF82;fillColor=none;" vertex="1" parent="1">
          <mxGeometry x="160" y="504" width="160" height="580" as="geometry" />
        </mxCell>
        <mxCell id="kKIpwyrMqBAjSHRRCRlv-51" value="Employer Controller" style="rounded=1;whiteSpace=wrap;html=1;" vertex="1" parent="1">
          <mxGeometry x="390" y="624" width="120" height="60" as="geometry" />
        </mxCell>
        <mxCell id="kKIpwyrMqBAjSHRRCRlv-52" value="Freelancer Controller" style="rounded=1;whiteSpace=wrap;html=1;" vertex="1" parent="1">
          <mxGeometry x="390" y="714" width="120" height="60" as="geometry" />
        </mxCell>
        <mxCell id="kKIpwyrMqBAjSHRRCRlv-53" value="Category Controller" style="rounded=1;whiteSpace=wrap;html=1;" vertex="1" parent="1">
          <mxGeometry x="390" y="812" width="120" height="60" as="geometry" />
        </mxCell>
        <mxCell id="kKIpwyrMqBAjSHRRCRlv-54" value="Skill Controller" style="rounded=1;whiteSpace=wrap;html=1;" vertex="1" parent="1">
          <mxGeometry x="390" y="910" width="120" height="60" as="geometry" />
        </mxCell>
        <mxCell id="kKIpwyrMqBAjSHRRCRlv-55" value="Post Controller" style="rounded=1;whiteSpace=wrap;html=1;" vertex="1" parent="1">
          <mxGeometry x="390" y="1004" width="120" height="60" as="geometry" />
        </mxCell>
        <mxCell id="kKIpwyrMqBAjSHRRCRlv-56" value="Account Controller" style="rounded=1;whiteSpace=wrap;html=1;" vertex="1" parent="1">
          <mxGeometry x="390" y="534" width="120" height="60" as="geometry" />
        </mxCell>
        <mxCell id="kKIpwyrMqBAjSHRRCRlv-57" value="" style="endArrow=classic;html=1;rounded=0;exitX=0;exitY=0.5;exitDx=0;exitDy=0;entryX=0.5;entryY=0;entryDx=0;entryDy=0;edgeStyle=orthogonalEdgeStyle;curved=1;" edge="1" parent="1" source="kKIpwyrMqBAjSHRRCRlv-17" target="kKIpwyrMqBAjSHRRCRlv-31">
          <mxGeometry width="50" height="50" relative="1" as="geometry">
            <mxPoint x="120" y="574" as="sourcePoint" />
            <mxPoint x="190" y="574" as="targetPoint" />
          </mxGeometry>
        </mxCell>
        <mxCell id="kKIpwyrMqBAjSHRRCRlv-58" value="" style="endArrow=classic;html=1;rounded=0;entryX=1;entryY=0.5;entryDx=0;entryDy=0;exitX=0;exitY=0.5;exitDx=0;exitDy=0;" edge="1" parent="1" source="kKIpwyrMqBAjSHRRCRlv-56" target="kKIpwyrMqBAjSHRRCRlv-31">
          <mxGeometry width="50" height="50" relative="1" as="geometry">
            <mxPoint x="375" y="563" as="sourcePoint" />
            <mxPoint x="305" y="563.41" as="targetPoint" />
          </mxGeometry>
        </mxCell>
        <mxCell id="kKIpwyrMqBAjSHRRCRlv-59" value="" style="endArrow=classic;html=1;rounded=0;entryX=1;entryY=0.5;entryDx=0;entryDy=0;exitX=0;exitY=0.5;exitDx=0;exitDy=0;" edge="1" parent="1" source="kKIpwyrMqBAjSHRRCRlv-51" target="kKIpwyrMqBAjSHRRCRlv-32">
          <mxGeometry width="50" height="50" relative="1" as="geometry">
            <mxPoint x="395" y="653.41" as="sourcePoint" />
            <mxPoint x="305" y="653.41" as="targetPoint" />
          </mxGeometry>
        </mxCell>
        <mxCell id="kKIpwyrMqBAjSHRRCRlv-60" value="" style="endArrow=classic;html=1;rounded=0;entryX=1;entryY=0.5;entryDx=0;entryDy=0;exitX=0;exitY=0.5;exitDx=0;exitDy=0;" edge="1" parent="1" source="kKIpwyrMqBAjSHRRCRlv-52" target="kKIpwyrMqBAjSHRRCRlv-30">
          <mxGeometry width="50" height="50" relative="1" as="geometry">
            <mxPoint x="410" y="584" as="sourcePoint" />
            <mxPoint x="320" y="584" as="targetPoint" />
          </mxGeometry>
        </mxCell>
        <mxCell id="kKIpwyrMqBAjSHRRCRlv-61" value="" style="endArrow=classic;html=1;rounded=0;entryX=1;entryY=0.5;entryDx=0;entryDy=0;exitX=0;exitY=0.5;exitDx=0;exitDy=0;" edge="1" parent="1" source="kKIpwyrMqBAjSHRRCRlv-53" target="kKIpwyrMqBAjSHRRCRlv-29">
          <mxGeometry width="50" height="50" relative="1" as="geometry">
            <mxPoint x="420" y="594" as="sourcePoint" />
            <mxPoint x="330" y="594" as="targetPoint" />
          </mxGeometry>
        </mxCell>
        <mxCell id="kKIpwyrMqBAjSHRRCRlv-62" value="" style="endArrow=classic;html=1;rounded=0;entryX=1;entryY=0.5;entryDx=0;entryDy=0;exitX=0;exitY=0.5;exitDx=0;exitDy=0;" edge="1" parent="1" source="kKIpwyrMqBAjSHRRCRlv-54" target="kKIpwyrMqBAjSHRRCRlv-28">
          <mxGeometry width="50" height="50" relative="1" as="geometry">
            <mxPoint x="430" y="604" as="sourcePoint" />
            <mxPoint x="340" y="604" as="targetPoint" />
          </mxGeometry>
        </mxCell>
        <mxCell id="kKIpwyrMqBAjSHRRCRlv-63" value="" style="endArrow=classic;html=1;rounded=0;entryX=1;entryY=0.5;entryDx=0;entryDy=0;exitX=0;exitY=0.5;exitDx=0;exitDy=0;" edge="1" parent="1" source="kKIpwyrMqBAjSHRRCRlv-55" target="kKIpwyrMqBAjSHRRCRlv-42">
          <mxGeometry width="50" height="50" relative="1" as="geometry">
            <mxPoint x="440" y="614" as="sourcePoint" />
            <mxPoint x="350" y="614" as="targetPoint" />
          </mxGeometry>
        </mxCell>
        <mxCell id="kKIpwyrMqBAjSHRRCRlv-64" value="" style="rounded=0;whiteSpace=wrap;html=1;strokeColor=#63FFA0;fillColor=none;" vertex="1" parent="1">
          <mxGeometry x="370" y="434" width="160" height="650" as="geometry" />
        </mxCell>
        <mxCell id="kKIpwyrMqBAjSHRRCRlv-67" value="" style="endArrow=classic;html=1;rounded=0;exitX=1;exitY=0.5;exitDx=0;exitDy=0;entryX=0.5;entryY=0;entryDx=0;entryDy=0;edgeStyle=orthogonalEdgeStyle;curved=1;" edge="1" parent="1" source="kKIpwyrMqBAjSHRRCRlv-56" target="kKIpwyrMqBAjSHRRCRlv-15">
          <mxGeometry width="50" height="50" relative="1" as="geometry">
            <mxPoint x="330" y="720" as="sourcePoint" />
            <mxPoint x="920" y="480" as="targetPoint" />
            <Array as="points">
              <mxPoint x="930" y="564" />
              <mxPoint x="930" y="40" />
              <mxPoint x="600" y="40" />
            </Array>
          </mxGeometry>
        </mxCell>
        <mxCell id="kKIpwyrMqBAjSHRRCRlv-68" value="" style="endArrow=classic;html=1;rounded=0;exitX=1;exitY=0.5;exitDx=0;exitDy=0;entryX=0.5;entryY=0;entryDx=0;entryDy=0;edgeStyle=orthogonalEdgeStyle;curved=1;" edge="1" parent="1" source="kKIpwyrMqBAjSHRRCRlv-51" target="kKIpwyrMqBAjSHRRCRlv-14">
          <mxGeometry width="50" height="50" relative="1" as="geometry">
            <mxPoint x="520" y="610" as="sourcePoint" />
            <mxPoint x="520" y="90" as="targetPoint" />
            <Array as="points">
              <mxPoint x="970" y="654" />
              <mxPoint x="970" y="30" />
              <mxPoint x="510" y="30" />
            </Array>
          </mxGeometry>
        </mxCell>
        <mxCell id="kKIpwyrMqBAjSHRRCRlv-69" value="" style="endArrow=classic;html=1;rounded=0;exitX=1;exitY=0.5;exitDx=0;exitDy=0;entryX=0.5;entryY=0;entryDx=0;entryDy=0;edgeStyle=orthogonalEdgeStyle;curved=1;" edge="1" parent="1" source="kKIpwyrMqBAjSHRRCRlv-52" target="kKIpwyrMqBAjSHRRCRlv-14">
          <mxGeometry width="50" height="50" relative="1" as="geometry">
            <mxPoint x="530" y="620" as="sourcePoint" />
            <mxPoint x="530" y="100" as="targetPoint" />
            <Array as="points">
              <mxPoint x="990" y="744" />
              <mxPoint x="990" y="10" />
              <mxPoint x="510" y="10" />
            </Array>
          </mxGeometry>
        </mxCell>
        <mxCell id="kKIpwyrMqBAjSHRRCRlv-70" value="" style="endArrow=classic;html=1;rounded=0;exitX=1;exitY=0.5;exitDx=0;exitDy=0;entryX=0.5;entryY=0;entryDx=0;entryDy=0;edgeStyle=orthogonalEdgeStyle;curved=1;" edge="1" parent="1" source="kKIpwyrMqBAjSHRRCRlv-53" target="kKIpwyrMqBAjSHRRCRlv-16">
          <mxGeometry width="50" height="50" relative="1" as="geometry">
            <mxPoint x="540" y="630" as="sourcePoint" />
            <mxPoint x="540" y="110" as="targetPoint" />
            <Array as="points">
              <mxPoint x="1010" y="842" />
              <mxPoint x="1010" y="40" />
              <mxPoint x="695" y="40" />
            </Array>
          </mxGeometry>
        </mxCell>
        <mxCell id="kKIpwyrMqBAjSHRRCRlv-71" value="" style="endArrow=classic;html=1;rounded=0;exitX=1;exitY=0.5;exitDx=0;exitDy=0;entryX=0.5;entryY=0;entryDx=0;entryDy=0;edgeStyle=orthogonalEdgeStyle;curved=1;" edge="1" parent="1" source="kKIpwyrMqBAjSHRRCRlv-54" target="kKIpwyrMqBAjSHRRCRlv-12">
          <mxGeometry width="50" height="50" relative="1" as="geometry">
            <mxPoint x="550" y="640" as="sourcePoint" />
            <mxPoint x="550" y="120" as="targetPoint" />
            <Array as="points">
              <mxPoint x="1040" y="940" />
              <mxPoint x="1040" y="60" />
              <mxPoint x="785" y="60" />
            </Array>
          </mxGeometry>
        </mxCell>
        <mxCell id="kKIpwyrMqBAjSHRRCRlv-72" value="" style="endArrow=classic;html=1;rounded=0;exitX=1;exitY=0.5;exitDx=0;exitDy=0;entryX=0.5;entryY=0;entryDx=0;entryDy=0;edgeStyle=orthogonalEdgeStyle;curved=1;" edge="1" parent="1" source="kKIpwyrMqBAjSHRRCRlv-55" target="kKIpwyrMqBAjSHRRCRlv-13">
          <mxGeometry width="50" height="50" relative="1" as="geometry">
            <mxPoint x="560" y="650" as="sourcePoint" />
            <mxPoint x="560" y="130" as="targetPoint" />
            <Array as="points">
              <mxPoint x="1120" y="1034" />
              <mxPoint x="1120" y="-10" />
              <mxPoint x="425" y="-10" />
            </Array>
          </mxGeometry>
        </mxCell>
      </root>
    </mxGraphModel>
  </diagram>
</mxfile>
